<?xml version="1.0" encoding="UTF-8"?>
<svg xmlns="http://www.w3.org/2000/svg" viewBox="0 0 400 600" role="img" aria-label="Fútbol">
  <defs>
    <linearGradient id="sky" x1="0%" y1="0%" x2="0%" y2="100%"><stop offset="0%" stop-color="#2a2460"/><stop offset="55%" stop-color="#1a1840"/><stop offset="100%" stop-color="#0a0818"/></linearGradient>
    <radialGradient id="glow" cx="50%" cy="22%" r="68%"><stop offset="0%" stop-color="#5d5fef" stop-opacity="0.42"/><stop offset="100%" stop-color="#000" stop-opacity="0"/></radialGradient>
    <linearGradient id="beam" x1="0%" y1="0%" x2="100%" y2="100%"><stop offset="0%" stop-color="#fff" stop-opacity="0"/><stop offset="50%" stop-color="#7476ff" stop-opacity="0.14"/><stop offset="100%" stop-color="#fff" stop-opacity="0"/></linearGradient>
    <filter id="blur"><feGaussianBlur stdDeviation="16"/></filter>
  </defs>
  <rect width="400" height="600" fill="url(#sky)"/>
  <rect width="400" height="600" fill="url(#glow)"/>
  <rect x="-40" y="70" width="480" height="130" fill="url(#beam)" transform="rotate(-10 200 300)"/>
  <ellipse cx="200" cy="250" rx="120" ry="78" fill="none" stroke="rgba(255,255,255,0.14)" stroke-width="3"/><circle cx="200" cy="250" r="46" fill="none" stroke="rgba(93,95,239,0.55)" stroke-width="4"/><line x1="200" y1="204" x2="200" y2="296" stroke="rgba(255,255,255,0.22)" stroke-width="3"/><line x1="154" y1="250" x2="246" y2="250" stroke="rgba(255,255,255,0.22)" stroke-width="3"/>
  <path d="M0 420 Q140 360 200 385 T400 405 V600 H0 Z" fill="#050505" opacity="0.82"/>
  <rect x="0" y="468" width="400" height="132" fill="rgba(0,0,0,0.55)"/>
  <text x="200" y="502" text-anchor="middle" fill="#ffffff" font-family="Arial Black, Helvetica, sans-serif" font-size="34" font-weight="900" letter-spacing="2">Fútbol</text>
  <text x="200" y="528" text-anchor="middle" fill="rgba(255,255,255,0.72)" font-family="Arial Narrow, Arial, sans-serif" font-size="12" font-weight="700" letter-spacing="4">LALIGA · CHAMPIONS · COPAS</text>
  
  <rect x="20" y="548" width="67.6" height="18" rx="9" fill="rgba(255,255,255,0.08)" stroke="rgba(255,255,255,0.14)"/><text x="53.8" y="560" text-anchor="middle" fill="rgba(255,255,255,0.62)" font-family="Arial Narrow, Arial, sans-serif" font-size="8" font-weight="700" letter-spacing="1">MOVISTAR</text><rect x="93.6" y="548" width="58" height="18" rx="9" fill="rgba(255,255,255,0.08)" stroke="rgba(255,255,255,0.14)"/><text x="122.6" y="560" text-anchor="middle" fill="rgba(255,255,255,0.62)" font-family="Arial Narrow, Arial, sans-serif" font-size="8" font-weight="700" letter-spacing="1">DAZN</text><rect x="157.6" y="548" width="58" height="18" rx="9" fill="rgba(255,255,255,0.08)" stroke="rgba(255,255,255,0.14)"/><text x="186.6" y="560" text-anchor="middle" fill="rgba(255,255,255,0.62)" font-family="Arial Narrow, Arial, sans-serif" font-size="8" font-weight="700" letter-spacing="1">LA 1</text>
</svg>