<?xml version="1.0" encoding="UTF-8"?>
<svg xmlns="http://www.w3.org/2000/svg" viewBox="0 0 400 600" role="img" aria-label="E-Sports">
  <defs>
    <linearGradient id="sky" x1="0%" y1="0%" x2="0%" y2="100%"><stop offset="0%" stop-color="#0a140a"/><stop offset="100%" stop-color="#050505"/></linearGradient>
    <radialGradient id="glow" cx="50%" cy="22%" r="68%"><stop offset="0%" stop-color="#22c55e" stop-opacity="0.38"/><stop offset="100%" stop-color="#000" stop-opacity="0"/></radialGradient>
    <linearGradient id="beam" x1="0%" y1="0%" x2="100%" y2="100%"><stop offset="0%" stop-color="#fff" stop-opacity="0"/><stop offset="50%" stop-color="#4ade80" stop-opacity="0.12"/><stop offset="100%" stop-color="#fff" stop-opacity="0"/></linearGradient>
    <filter id="blur"><feGaussianBlur stdDeviation="16"/></filter>
  </defs>
  <rect width="400" height="600" fill="url(#sky)"/>
  <rect width="400" height="600" fill="url(#glow)"/>
  <rect x="-40" y="70" width="480" height="130" fill="url(#beam)" transform="rotate(-10 200 300)"/>
  <polygon points="200,180 260,260 230,320 170,320 140,260" fill="none" stroke="#22c55e" stroke-width="4"/><polygon points="200,205 240,255 220,295 180,295 160,255" fill="rgba(34,197,94,0.16)"/>
  <path d="M0 420 Q140 360 200 385 T400 405 V600 H0 Z" fill="#050505" opacity="0.82"/>
  <rect x="0" y="468" width="400" height="132" fill="rgba(0,0,0,0.55)"/>
  <text x="200" y="502" text-anchor="middle" fill="#ffffff" font-family="Arial Black, Helvetica, sans-serif" font-size="34" font-weight="900" letter-spacing="2">E-Sports</text>
  <text x="200" y="528" text-anchor="middle" fill="rgba(255,255,255,0.72)" font-family="Arial Narrow, Arial, sans-serif" font-size="12" font-weight="700" letter-spacing="4">CS2 · VALORANT · LOL</text>
  
  <rect x="20" y="548" width="58" height="18" rx="9" fill="rgba(255,255,255,0.08)" stroke="rgba(255,255,255,0.14)"/><text x="49" y="560" text-anchor="middle" fill="rgba(255,255,255,0.62)" font-family="Arial Narrow, Arial, sans-serif" font-size="8" font-weight="700" letter-spacing="1">TWITCH</text><rect x="84" y="548" width="61.4" height="18" rx="9" fill="rgba(255,255,255,0.08)" stroke="rgba(255,255,255,0.14)"/><text x="114.7" y="560" text-anchor="middle" fill="rgba(255,255,255,0.62)" font-family="Arial Narrow, Arial, sans-serif" font-size="8" font-weight="700" letter-spacing="1">YOUTUBE</text><rect x="151.4" y="548" width="58" height="18" rx="9" fill="rgba(255,255,255,0.08)" stroke="rgba(255,255,255,0.14)"/><text x="180.4" y="560" text-anchor="middle" fill="rgba(255,255,255,0.62)" font-family="Arial Narrow, Arial, sans-serif" font-size="8" font-weight="700" letter-spacing="1">KICK</text>
</svg>