<?xml version="1.0" encoding="UTF-8"?>
<svg xmlns="http://www.w3.org/2000/svg" viewBox="0 0 400 600" role="img" aria-label="MotoGP">
  <defs>
    <linearGradient id="sky" x1="0%" y1="0%" x2="0%" y2="100%"><stop offset="0%" stop-color="#15151e"/><stop offset="100%" stop-color="#08080c"/></linearGradient>
    <radialGradient id="glow" cx="50%" cy="22%" r="68%"><stop offset="0%" stop-color="#e10600" stop-opacity="0.42"/><stop offset="100%" stop-color="#000" stop-opacity="0"/></radialGradient>
    <linearGradient id="beam" x1="0%" y1="0%" x2="100%" y2="100%"><stop offset="0%" stop-color="#fff" stop-opacity="0"/><stop offset="50%" stop-color="#ef4444" stop-opacity="0.12"/><stop offset="100%" stop-color="#fff" stop-opacity="0"/></linearGradient>
    <filter id="blur"><feGaussianBlur stdDeviation="16"/></filter>
  </defs>
  <rect width="400" height="600" fill="url(#sky)"/>
  <rect width="400" height="600" fill="url(#glow)"/>
  <rect x="-40" y="70" width="480" height="130" fill="url(#beam)" transform="rotate(-10 200 300)"/>
  <path d="M130 300 C150 220 250 220 270 300" fill="none" stroke="#fff" stroke-width="4" opacity="0.75"/><circle cx="158" cy="286" r="28" fill="none" stroke="#fff" stroke-width="4"/><circle cx="242" cy="286" r="28" fill="none" stroke="#fff" stroke-width="4"/><rect x="168" y="248" width="64" height="18" rx="4" fill="#e10600"/>
  <path d="M0 420 Q140 360 200 385 T400 405 V600 H0 Z" fill="#050505" opacity="0.82"/>
  <rect x="0" y="468" width="400" height="132" fill="rgba(0,0,0,0.55)"/>
  <text x="200" y="502" text-anchor="middle" fill="#ffffff" font-family="Arial Black, Helvetica, sans-serif" font-size="34" font-weight="900" letter-spacing="2">MotoGP</text>
  <text x="200" y="528" text-anchor="middle" fill="rgba(255,255,255,0.72)" font-family="Arial Narrow, Arial, sans-serif" font-size="12" font-weight="700" letter-spacing="4">CARRERAS · SPRINT</text>
  
  <rect x="20" y="548" width="58" height="18" rx="9" fill="rgba(255,255,255,0.08)" stroke="rgba(255,255,255,0.14)"/><text x="49" y="560" text-anchor="middle" fill="rgba(255,255,255,0.62)" font-family="Arial Narrow, Arial, sans-serif" font-size="8" font-weight="700" letter-spacing="1">DAZN</text><rect x="84" y="548" width="67.6" height="18" rx="9" fill="rgba(255,255,255,0.08)" stroke="rgba(255,255,255,0.14)"/><text x="117.8" y="560" text-anchor="middle" fill="rgba(255,255,255,0.62)" font-family="Arial Narrow, Arial, sans-serif" font-size="8" font-weight="700" letter-spacing="1">MOVISTAR</text><rect x="157.6" y="548" width="73.80000000000001" height="18" rx="9" fill="rgba(255,255,255,0.08)" stroke="rgba(255,255,255,0.14)"/><text x="194.5" y="560" text-anchor="middle" fill="rgba(255,255,255,0.62)" font-family="Arial Narrow, Arial, sans-serif" font-size="8" font-weight="700" letter-spacing="1">VIDEOPASS</text>
</svg>